# xmcd
#
# Track frame offsets: 
#        182
#        16302
#        33370
#        49105
#        68342
#        88872
#        105347
#        118385
#        135307
#        150742
#
# Disc length: 2253 seconds
#
# Revision: 16
# Processed by: cddbd v1.5.2PL0 Copyright (c) Steve Scherf et al.
# Submitted via: ExactAudioCopyFreeDBPlugin 1.0
#
DISCID=7608cb0a
DTITLE=Various Artist - 20 Great Years
DYEAR=1990
DGENRE=Country
TTITLE0=Kenny Rogers/Hal Bynum/Roger Bowling - Lucille
TTITLE1=Kenny Rogers/Lionel Richie - Lady
TTITLE2=Kenny Rogers/Don Schlitz - The Gambler
TTITLE3=Kenny Rogers/Steve Gibb - She Believes In Me
TTITLE4=Kenny Rogers/Roger Bowling/Billy Edd Wheeler - Coward Of The C
TTITLE4=ounty
TTITLE5=Kenny Rogers/Bob Morrison/Debbie Hupp - You Decorated My Life
TTITLE6=Kenny Rogers/Mel Tillis - Ruby, Don't Take Your Love To Town
TTITLE7=Kenny Rogers/Dave Ellingson/Kim Carnes - Don't Fall In Love Wi
TTITLE7=th A Dreamer
TTITLE8=Kenny Rogers/Ben Peters - Daytime Friends
TTITLE9=Kenny Rogers/Mac Davis - Something's Burning
EXTD=
EXTT0=
EXTT1=
EXTT2=
EXTT3=
EXTT4=
EXTT5=
EXTT6=
EXTT7=
EXTT8=
EXTT9=
PLAYORDER=
